<svg width="44" height="49" viewBox="0 0 44 49" fill="none" xmlns="http://www.w3.org/2000/svg">
<g clip-path="url(#clip0_8464_42635)">
<path d="M42.8419 25.1509C42.8419 36.3954 33.7264 45.5108 22.482 45.5108C11.2375 45.5108 2.12207 36.3954 2.12207 25.1509C2.12207 13.9065 11.2375 4.79102 22.482 4.79102C33.7264 4.79102 42.8419 13.9065 42.8419 25.1509Z" fill="#48AFFF"/>
<path d="M22.5019 46.0467C10.9801 46.0467 1.60645 36.6731 1.60645 25.1513C1.60645 13.6295 10.9801 4.25586 22.5019 4.25586C34.0237 4.25586 43.3973 13.6295 43.3973 25.1513C43.3973 36.6731 34.0237 46.0467 22.5019 46.0467ZM22.5019 5.17352C11.4861 5.17352 2.52411 14.1355 2.52411 25.1513C2.52411 36.1671 11.4861 45.1291 22.5019 45.1291C33.5176 45.1291 42.4796 36.1671 42.4796 25.1513C42.4796 14.1355 33.5176 5.17352 22.5019 5.17352Z" fill="#F9EE4A"/>
<path d="M25.2028 35.6902C25.1829 35.6902 25.1628 35.6889 25.1429 35.6863L17.2235 34.6447C17.1028 34.6288 16.9934 34.5658 16.9194 34.4692L12.0568 28.1335C11.9826 28.037 11.95 27.915 11.9658 27.7944L13.0074 19.8749C13.0233 19.7542 13.0864 19.6449 13.1829 19.5708L19.5218 14.708C19.6182 14.6341 19.7403 14.6014 19.8608 14.6172L27.7803 15.6587C27.901 15.6746 28.0105 15.7378 28.0846 15.8345L32.944 22.1732C33.0181 22.2698 33.0506 22.3916 33.0347 22.5122L31.9932 30.4317C31.9773 30.5524 31.9141 30.662 31.8175 30.736L28.6496 33.1642L25.4819 35.5953C25.4015 35.6572 25.3033 35.6902 25.2028 35.6902ZM17.5316 33.7597L25.0741 34.7517L28.0912 32.4362L31.1082 30.1236L32.1002 22.5809L27.472 16.5439L19.9293 15.5519L13.8923 20.1832L12.9003 27.7257L17.5316 33.7597Z" fill="#F9EE4A"/>
<path d="M32.575 22.912C32.3216 22.912 32.1162 22.7065 32.1162 22.4532V7.46469C32.1162 7.21132 32.3216 7.00586 32.575 7.00586C32.8285 7.00586 33.0339 7.21132 33.0339 7.46469V22.4532C33.0339 22.7065 32.8285 22.912 32.575 22.912Z" fill="#F9EE4A"/>
<path d="M31.536 30.8294C31.4186 30.8294 31.301 30.7846 31.2116 30.695C31.0323 30.5158 31.0323 30.2253 31.2116 30.0462L41.8088 19.4488C41.9879 19.2697 42.2786 19.2697 42.4576 19.4488C42.6368 19.628 42.6368 19.9186 42.4576 20.0977L31.8604 30.695C31.7709 30.7845 31.6534 30.8294 31.536 30.8294Z" fill="#F9EE4A"/>
<path d="M40.1816 35.6911H25.1961C24.9427 35.6911 24.7373 35.4857 24.7373 35.2323C24.7373 34.9788 24.9427 34.7734 25.1961 34.7734H40.1816C40.435 34.7734 40.6404 34.9788 40.6404 35.2323C40.6404 35.4857 40.435 35.6911 40.1816 35.6911Z" fill="#F9EE4A"/>
<path d="M27.8785 45.2474C27.7612 45.2474 27.6436 45.2026 27.5541 45.113L16.9567 34.5156C16.7775 34.3365 16.7775 34.046 16.9567 33.8668C17.1359 33.6876 17.4263 33.6876 17.6056 33.8668L28.2028 44.4641C28.3821 44.6432 28.3821 44.9338 28.2028 45.1129C28.1134 45.2026 27.9959 45.2474 27.8785 45.2474Z" fill="#F9EE4A"/>
<path d="M12.4207 43.2996C12.1674 43.2996 11.9619 43.0942 11.9619 42.8408V27.8553C11.9619 27.6019 12.1674 27.3965 12.4207 27.3965C12.6741 27.3965 12.8796 27.6019 12.8796 27.8553V42.8408C12.8796 43.0942 12.6741 43.2996 12.4207 43.2996Z" fill="#F9EE4A"/>
<path d="M2.86613 30.9915C2.74867 30.9915 2.6313 30.9467 2.54164 30.8571C2.36242 30.6779 2.36242 30.3874 2.54164 30.2083L13.1389 19.6109C13.3181 19.4318 13.6086 19.4318 13.7878 19.6109C13.967 19.7901 13.967 20.0807 13.7878 20.2598L3.19061 30.8571C3.10096 30.9467 2.98359 30.9915 2.86613 30.9915Z" fill="#F9EE4A"/>
<path d="M19.8047 15.5309H4.81625C4.56289 15.5309 4.35742 15.3255 4.35742 15.0721C4.35742 14.8187 4.56289 14.6133 4.81625 14.6133H19.8047C20.0581 14.6133 20.2636 14.8187 20.2636 15.0721C20.2636 15.3255 20.0581 15.5309 19.8047 15.5309Z" fill="#F9EE4A"/>
<path d="M27.7223 16.5735C27.6049 16.5735 27.4874 16.5287 27.3979 16.4392L16.8004 5.84182C16.6212 5.6626 16.6212 5.37207 16.8004 5.19294C16.9797 5.01381 17.2701 5.01381 17.4493 5.19294L28.0467 15.7902C28.2259 15.9694 28.2259 16.26 28.0467 16.4391C27.9571 16.5287 27.8396 16.5735 27.7223 16.5735Z" fill="#F9EE4A"/>
<path d="M20.4788 15.0034L28.2189 16.4429L32.6769 22.9379L31.2413 30.6837L24.7532 35.143L17.0131 33.7035L12.5551 27.2085L13.9907 19.4626L20.4788 15.0034Z" fill="#F9EE4A"/>
</g>
<defs>
<clipPath id="clip0_8464_42635">
<rect width="43.67" height="48" fill="white" transform="translate(0 0.660156)"/>
</clipPath>
</defs>
</svg>
