<svg width="47" height="49" viewBox="0 0 47 49" fill="none" xmlns="http://www.w3.org/2000/svg">
<g clip-path="url(#clip0_8464_42223)">
<g clip-path="url(#clip1_8464_42223)">
<path d="M11.1367 31.3121L11.1493 33.9553C11.1536 35.4897 12.1679 37.0212 14.1963 38.1916C18.2847 40.5507 24.9362 40.5454 29.0512 38.1863C31.1219 36.9991 32.1561 35.4423 32.1516 33.8874L32.1391 31.2441C32.1435 32.7988 31.1093 34.3558 29.0387 35.5429C24.9236 37.9021 18.2721 37.9082 14.1837 35.5485C12.1552 34.378 11.141 32.8465 11.1367 31.3121Z" fill="#FFF348"/>
<path d="M14.2417 27.0057C10.1275 29.3646 10.0957 33.1902 14.1833 35.5493C18.2709 37.9083 24.9232 37.9026 29.0382 35.5437C33.1533 33.1846 33.1749 29.3648 29.0858 27.0057C24.9968 24.6466 18.3566 24.6466 14.2417 27.0057Z" fill="#EF4A7B"/>
<path d="M11.1367 26.5951L11.1493 29.2384C11.1536 30.7728 12.1679 32.3044 14.1963 33.4748C18.2847 35.834 24.9362 35.8283 29.0512 33.4693C31.1219 32.2822 32.1561 30.7255 32.1516 29.1706L32.1391 26.5273C32.1435 28.082 31.1093 29.639 29.0387 30.8261C24.9236 33.185 18.2721 33.1907 14.1838 30.8317C12.1552 29.6612 11.141 28.1295 11.1367 26.5951Z" fill="#FFF348"/>
<path d="M14.2423 22.2868C10.1272 24.6459 10.0956 28.4715 14.1838 30.8306C18.272 33.1897 24.9237 33.1839 29.0388 30.8249C33.1538 28.466 33.1754 24.646 29.0864 22.2869C24.9974 19.9278 18.3572 19.9278 14.2423 22.2868Z" fill="#EF4A7B"/>
<path d="M11.1367 21.8764L11.1493 24.5197C11.1536 26.054 12.1679 27.5856 14.1963 28.7561C18.2847 31.1152 24.9362 31.1095 29.0512 28.7506C31.1219 27.5635 32.1561 26.0067 32.1516 24.4518L32.1391 21.8086C32.1435 23.3631 31.1093 24.9202 29.0387 26.1073C24.9236 28.4663 18.2721 28.4727 14.1838 26.1128C12.1552 24.9423 11.141 23.4108 11.1367 21.8764Z" fill="#FFF348"/>
<path d="M14.2423 17.5699C10.1272 19.929 10.0956 23.7547 14.1838 26.1136C18.272 28.4726 24.9237 28.467 29.0388 26.1081C33.1538 23.7492 33.1754 19.929 29.0864 17.5701C24.9974 15.2111 18.3572 15.211 14.2423 17.5699Z" fill="#EF4A7B"/>
<path d="M11.1367 17.1598L11.1493 19.803C11.1536 21.3374 12.1679 22.8689 14.1963 24.0395C18.2847 26.3986 24.9362 26.3929 29.0512 24.0338C31.1219 22.8467 32.1561 21.2899 32.1516 19.735L32.1391 17.0918C32.1435 18.6465 31.1093 20.2036 29.0387 21.3905C24.9236 23.7496 18.2721 23.7559 14.1837 21.3962C12.1552 20.2257 11.141 18.6941 11.1367 17.1598Z" fill="#FFF348"/>
<path d="M14.2417 12.8514C10.1275 15.2103 10.0957 19.0359 14.1833 21.395C18.2709 23.7542 24.9231 23.7485 29.0382 21.3894C33.1533 19.0303 33.1749 15.2105 29.0859 12.8514C24.9968 10.4923 18.3566 10.4923 14.2417 12.8514Z" fill="#EF4A7B"/>
<path d="M11.1367 12.441L11.1493 15.0841C11.1536 16.6185 12.1679 18.1502 14.1963 19.3207C18.2847 21.6797 24.9362 21.674 29.0512 19.3151C31.1219 18.1279 32.1561 16.5712 32.1516 15.0163L32.1397 12.373C32.1442 13.9278 31.11 15.4847 29.0393 16.6718C24.9242 19.0309 18.2728 19.0372 14.1844 16.6775C12.1552 15.5069 11.141 13.9752 11.1367 12.441Z" fill="#FFF348"/>
<path d="M14.2417 8.13261C10.1275 10.4916 10.0957 14.3172 14.1833 16.6763C18.2709 19.0354 24.9232 19.0297 29.0382 16.6706C33.1533 14.3115 33.1749 10.4917 29.0859 8.13261C24.9969 5.77351 18.3566 5.77351 14.2417 8.13261Z" fill="#EF4A7B"/>
<g opacity="0.3">
<path opacity="0.3" d="M11.9502 13.0391L11.9588 15.4819L11.9845 23.4942L11.9931 27.671L12.0104 31.0365L12.019 35.1023C12.0275 36.1786 12.905 37.3062 14.4534 38.2028C15.994 39.0827 18.0493 39.6549 20.2429 39.8257C20.6213 39.8599 20.9999 39.8771 21.3863 39.8856V15.5937C18.083 15.5682 14.9604 14.8079 12.5775 13.4333C12.3544 13.3043 12.1479 13.1761 11.9502 13.0391Z" fill="#F3F1FC"/>
</g>
<g opacity="0.3">
<path opacity="0.3" d="M11.957 15.4824L11.9829 23.4945L21.3852 33.5395V25.5445L11.957 15.4824Z" fill="white"/>
<path opacity="0.3" d="M11.9912 27.6719L12.0085 31.0374L20.241 39.8266C20.6195 39.8608 20.9981 39.8779 21.3845 39.8865V37.7081L11.9912 27.6719Z" fill="white"/>
</g>
<path d="M10.1445 7.27953L10.2363 35.1067C10.2417 36.7795 11.348 38.4523 13.5572 39.7286C18.0229 42.302 25.2693 42.3074 29.762 39.7336C32.0191 38.4416 33.1422 36.7421 33.1368 35.0477L33.0504 7.23047C33.0504 8.92552 10.1499 8.95233 10.1445 7.27953ZM11.948 13.0434C12.1478 13.1774 12.3584 13.3061 12.5744 13.4294C14.9611 14.8073 18.0877 15.5687 21.3869 15.5955V39.8841C18.7734 39.8463 16.2572 39.2406 14.4535 38.2002C12.9092 37.305 12.0236 36.179 12.0182 35.1013L11.948 13.0434Z" fill="url(#paint0_linear_8464_42223)"/>
<path d="M31.016 20.2754L27.8266 26.7691L30.6828 25.1317L26.1677 33.5389L28.2408 27.5501L25.9902 28.8402L27.604 22.2314L31.016 20.2754Z" fill="white"/>
<path d="M17.3549 26.7994C15.9808 26.7994 14.8669 27.9639 14.8669 29.3998C14.8669 27.9639 13.753 26.7994 12.3789 26.7994C13.753 26.7994 14.8669 25.6352 14.8669 24.1992C14.8669 25.6352 15.9808 26.7994 17.3549 26.7994Z" fill="#F8F9FE"/>
<path d="M13.5301 2.58554C9.03485 5.16256 9.02501 9.33312 13.4704 11.8986C17.9366 14.4758 25.1816 14.4798 29.6769 11.9027C34.1585 9.33358 34.1821 5.16256 29.7159 2.58554C25.2704 0.0203314 18.0117 0.0163918 13.5301 2.58554Z" fill="#57B3FE"/>
<path d="M28.5309 5.38682L28.5143 6.88396C28.5114 7.8962 27.8412 8.90701 26.5025 9.67941C23.8036 11.2368 19.4256 11.2344 16.7133 9.67941C15.3475 8.89599 14.663 7.86767 14.666 6.84093L14.6827 5.34375C14.6797 6.37068 15.6515 6.91409 17.0173 7.69736C19.7295 9.25223 23.8789 8.80247 26.578 7.24508C27.9165 6.47253 28.5279 6.39905 28.5309 5.38682Z" fill="#C9CEE2"/>
<path d="M26.4884 2.55401C29.2006 4.10887 29.2149 6.62929 26.5202 8.18369C23.8213 9.74108 19.4432 9.73869 16.7308 8.18369C14.0184 6.62864 13.9962 4.10887 16.6949 2.55243C19.3897 0.996624 23.776 0.999147 26.4884 2.55401Z" fill="#F3F1FC"/>
<path d="M24.9548 4.09503L24.9468 5.68601C24.9454 6.17484 24.6218 6.6637 23.9754 7.03602C22.6721 7.78792 20.558 7.78682 19.2484 7.03602C18.5885 6.65757 18.2583 6.16115 18.2598 5.66534L18.2677 4.07422C18.2663 4.56999 18.8466 4.19469 19.5065 4.57299C20.8162 5.32379 22.6434 5.22806 23.9466 4.47602C24.593 4.10308 24.9535 4.58372 24.9548 4.09503Z" fill="#DEDFFB"/>
<path d="M23.9684 2.72817C25.278 3.47895 25.285 4.69604 23.9843 5.44698C22.6836 6.19792 20.5669 6.19774 19.2571 5.44698C17.9474 4.69618 17.9366 3.47911 19.2397 2.72707C20.5427 1.97503 22.6586 1.97739 23.9684 2.72817Z" fill="white"/>
</g>
</g>
<defs>
<linearGradient id="paint0_linear_8464_42223" x1="21.6407" y1="7.23047" x2="21.6407" y2="41.6613" gradientUnits="userSpaceOnUse">
<stop stop-color="#5094FF"/>
<stop offset="1" stop-color="#57B3FE"/>
</linearGradient>
<clipPath id="clip0_8464_42223">
<rect width="47" height="48" fill="white" transform="translate(0 0.660156)"/>
</clipPath>
<clipPath id="clip1_8464_42223">
<rect width="23" height="41" fill="white" transform="translate(10.1445 0.660156)"/>
</clipPath>
</defs>
</svg>
