<svg width="49" height="51" viewBox="0 0 49 51" fill="none" xmlns="http://www.w3.org/2000/svg">
<g clip-path="url(#clip0_8464_41993)">
<g clip-path="url(#clip1_8464_41993)">
<g clip-path="url(#clip2_8464_41993)">
<path d="M36.9272 19.206H36.8896V13.5254H36.9272C36.9616 13.5254 36.9946 13.5391 37.0189 13.5634C37.0432 13.5876 37.0569 13.6206 37.0569 13.655V19.0763C37.0569 19.1107 37.0432 19.1437 37.0189 19.168C36.9946 19.1923 36.9616 19.206 36.9272 19.206Z" fill="url(#paint0_linear_8464_41993)"/>
<path d="M33.8911 0.769531H14.9437C13.2856 0.769531 11.9414 2.11372 11.9414 3.77186V47.1773C11.9414 48.8353 13.2856 50.1797 14.9437 50.1797H33.8911C35.5492 50.1797 36.8934 48.8353 36.8934 47.1773V3.77186C36.8934 2.11372 35.5492 0.769531 33.8911 0.769531Z" fill="url(#paint1_linear_8464_41993)"/>
<path d="M12.3314 46.9997V3.97913C12.3324 3.23647 12.6279 2.52452 13.1531 1.99938C13.6782 1.47424 14.3901 1.17876 15.1328 1.17773H14.9435C14.1939 1.17773 13.475 1.47543 12.9448 2.00538C12.4146 2.53533 12.1166 3.25414 12.1162 4.00377V46.9748C12.1166 47.7245 12.4146 48.4433 12.9448 48.9735C13.475 49.5033 14.1939 49.801 14.9435 49.801H15.1328C14.3901 49.8002 13.6782 49.5046 13.1531 48.9795C12.6279 48.4541 12.3324 47.7421 12.3314 46.9997Z" fill="white" fill-opacity="0.25"/>
<path d="M33.8856 1.17773H33.6963C34.4389 1.17876 35.1509 1.47424 35.676 1.99938C36.2012 2.52452 36.4967 3.23647 36.4977 3.97913V46.9997C36.4967 47.7421 36.2012 48.4541 35.676 48.9795C35.1509 49.5046 34.4389 49.8002 33.6963 49.801H33.8856C34.6352 49.801 35.3542 49.5033 35.8843 48.9735C36.4145 48.4433 36.7125 47.7245 36.7129 46.9748V4.00377C36.7125 3.25414 36.4145 2.53533 35.8843 2.00538C35.3542 1.47543 34.6352 1.17773 33.8856 1.17773Z" fill="white" fill-opacity="0.25"/>
<path d="M11.9011 16.9531H11.9439V20.5492H11.9011C11.8667 20.5492 11.8338 20.5355 11.8095 20.5112C11.7851 20.4869 11.7715 20.4539 11.7715 20.4195V17.0788C11.7715 17.0445 11.7851 17.0115 11.8095 16.9872C11.8338 16.9629 11.8667 16.9492 11.9011 16.9492V16.9531Z" fill="url(#paint2_linear_8464_41993)"/>
<path d="M11.9011 12.2559H11.9439V15.8519H11.9011C11.8667 15.8519 11.8338 15.8382 11.8095 15.8139C11.7851 15.7896 11.7715 15.7566 11.7715 15.7223V12.3816C11.7725 12.3479 11.7866 12.3159 11.8108 12.2924C11.835 12.269 11.8674 12.2558 11.9011 12.2559Z" fill="url(#paint3_linear_8464_41993)"/>
<path d="M33.2826 1.5H29.9237C29.7662 1.50145 29.6134 1.55353 29.4878 1.64855C29.3622 1.74356 29.2705 1.87646 29.2263 2.02761L28.9515 2.97394C28.902 3.14441 28.7986 3.29422 28.6567 3.40083C28.5148 3.50744 28.3421 3.56508 28.1646 3.56507H20.7158C20.5383 3.56508 20.3656 3.50744 20.2237 3.40083C20.0818 3.29422 19.9783 3.14441 19.9289 2.97394L19.6541 2.02761C19.6097 1.8753 19.5171 1.7415 19.3902 1.64636C19.2632 1.55121 19.1088 1.49985 18.9502 1.5H15.5913C14.8821 1.5 14.2018 1.78176 13.7003 2.2833C13.1988 2.78484 12.917 3.46507 12.917 4.17436V46.4599C12.917 47.1693 13.1988 47.8494 13.7003 48.3508C14.2018 48.8522 14.8821 49.1341 15.5913 49.1341H33.2826C33.9918 49.1341 34.6721 48.8522 35.1736 48.3508C35.6752 47.8494 35.9569 47.1693 35.9569 46.4599V4.17436C35.9571 3.82311 35.888 3.47527 35.7537 3.15072C35.6194 2.82618 35.4224 2.53129 35.174 2.28292C34.9256 2.03455 34.6307 1.83757 34.3062 1.70323C33.9816 1.56889 33.6338 1.49983 33.2826 1.5Z" fill="url(#paint4_linear_8464_41993)"/>
<g style="mix-blend-mode:color-dodge">
<g style="mix-blend-mode:color-dodge">
<path style="mix-blend-mode:color-dodge" d="M24.4156 50.103C29.5876 50.103 33.7804 49.962 33.7804 49.788C33.7804 49.614 29.5876 49.4727 24.4156 49.4727C19.2436 49.4727 15.0508 49.614 15.0508 49.788C15.0508 49.962 19.2436 50.103 24.4156 50.103Z" fill="url(#paint5_radial_8464_41993)" fill-opacity="0.45"/>
</g>
</g>
<g style="mix-blend-mode:color-dodge">
<g style="mix-blend-mode:color-dodge">
<path style="mix-blend-mode:color-dodge" d="M33.7775 1.15942C33.7775 0.985708 29.5877 0.845703 24.4192 0.845703C19.2506 0.845703 15.0596 0.985708 15.0596 1.15942C15.0596 1.33313 19.2494 1.47443 24.4192 1.47443C29.589 1.47443 33.7775 1.33313 33.7775 1.15942Z" fill="url(#paint6_radial_8464_41993)" fill-opacity="0.45"/>
</g>
</g>
<path d="M22.6259 2.72215C22.5554 2.71733 22.4894 2.68594 22.4412 2.63433C22.393 2.58271 22.3662 2.51471 22.3662 2.44408C22.3662 2.37345 22.393 2.30546 22.4412 2.25384C22.4894 2.20222 22.5554 2.17083 22.6259 2.16602H26.1948C26.2652 2.17083 26.3312 2.20222 26.3794 2.25384C26.4276 2.30546 26.4545 2.37345 26.4545 2.44408C26.4545 2.51471 26.4276 2.58271 26.3794 2.63433C26.3312 2.68594 26.2652 2.71733 26.1948 2.72215H22.6259Z" fill="url(#paint7_linear_8464_41993)"/>
<path d="M26.2041 2.26758H22.6145C22.5243 2.26758 22.4512 2.34071 22.4512 2.43092V2.45166C22.4512 2.54186 22.5243 2.615 22.6145 2.615H26.2041C26.2943 2.615 26.3674 2.54186 26.3674 2.45166V2.43092C26.3674 2.34071 26.2943 2.26758 26.2041 2.26758Z" fill="url(#paint8_linear_8464_41993)"/>
<path d="M20.7126 2.71953C20.6574 2.71979 20.6033 2.70363 20.5573 2.67311C20.5112 2.64258 20.4753 2.59906 20.4541 2.54808C20.4328 2.4971 20.4272 2.44095 20.4379 2.38677C20.4486 2.33258 20.4752 2.2828 20.5142 2.24374C20.5533 2.20469 20.6031 2.17811 20.6573 2.1674C20.7115 2.15669 20.7676 2.16232 20.8186 2.18357C20.8696 2.20483 20.9131 2.24075 20.9436 2.28679C20.9741 2.33282 20.9903 2.38688 20.99 2.44212C20.99 2.47855 20.9829 2.51462 20.9689 2.54828C20.955 2.58194 20.9345 2.61252 20.9088 2.63828C20.883 2.66404 20.8524 2.68448 20.8188 2.69842C20.7851 2.71236 20.7491 2.71953 20.7126 2.71953Z" fill="url(#paint9_linear_8464_41993)"/>
<path d="M20.8855 2.44258C20.8852 2.47688 20.8748 2.51034 20.8556 2.53873C20.8363 2.56713 20.8091 2.5892 20.7774 2.60214C20.7456 2.61509 20.7107 2.61835 20.6771 2.6115C20.6435 2.60465 20.6127 2.58801 20.5885 2.56366C20.5643 2.53932 20.5479 2.50836 20.5413 2.4747C20.5347 2.44104 20.5382 2.40618 20.5514 2.37451C20.5646 2.34285 20.5869 2.31579 20.6154 2.29676C20.6439 2.27774 20.6775 2.26758 20.7118 2.26758C20.7347 2.26757 20.7574 2.27211 20.7786 2.28092C20.7997 2.28973 20.8189 2.30264 20.8351 2.31891C20.8513 2.33518 20.864 2.35448 20.8726 2.37571C20.8813 2.39693 20.8857 2.41966 20.8855 2.44258Z" fill="url(#paint10_radial_8464_41993)"/>
<path d="M21.7361 2.71953C21.6808 2.71979 21.6268 2.70363 21.5807 2.67311C21.5347 2.64258 21.4988 2.59906 21.4775 2.54808C21.4563 2.4971 21.4506 2.44095 21.4613 2.38677C21.4721 2.33258 21.4986 2.2828 21.5377 2.24374C21.5767 2.20469 21.6265 2.17811 21.6807 2.1674C21.7349 2.15669 21.7911 2.16232 21.8421 2.18357C21.893 2.20483 21.9365 2.24075 21.967 2.28679C21.9976 2.33282 22.0137 2.38688 22.0135 2.44212C22.0135 2.47855 22.0063 2.51462 21.9924 2.54828C21.9784 2.58194 21.958 2.61252 21.9322 2.63828C21.9065 2.66404 21.8759 2.68448 21.8422 2.69842C21.8086 2.71236 21.7725 2.71953 21.7361 2.71953Z" fill="url(#paint11_linear_8464_41993)"/>
<path d="M21.905 2.44258C21.9048 2.47688 21.8944 2.51034 21.8751 2.53873C21.8559 2.56713 21.8287 2.5892 21.7969 2.60214C21.7652 2.61509 21.7303 2.61835 21.6966 2.6115C21.663 2.60465 21.6322 2.58801 21.608 2.56366C21.5839 2.53932 21.5675 2.50836 21.5609 2.4747C21.5543 2.44104 21.5578 2.40618 21.571 2.37451C21.5842 2.34285 21.6064 2.31579 21.6349 2.29676C21.6635 2.27774 21.697 2.26758 21.7313 2.26758C21.7543 2.26757 21.7769 2.27211 21.7981 2.28092C21.8193 2.28973 21.8385 2.30264 21.8546 2.31891C21.8708 2.33518 21.8835 2.35448 21.8922 2.37571C21.9009 2.39693 21.9052 2.41966 21.905 2.44258Z" fill="url(#paint12_linear_8464_41993)"/>
<path d="M28.1218 2.71953C28.0665 2.71979 28.0125 2.70363 27.9665 2.67311C27.9204 2.64258 27.8845 2.59906 27.8632 2.54808C27.842 2.4971 27.8364 2.44095 27.8471 2.38677C27.8578 2.33258 27.8844 2.2828 27.9234 2.24374C27.9625 2.20469 28.0123 2.17811 28.0665 2.1674C28.1206 2.15669 28.1768 2.16232 28.2278 2.18357C28.2788 2.20483 28.3223 2.24075 28.3528 2.28679C28.3833 2.33282 28.3995 2.38688 28.3992 2.44212C28.3992 2.51569 28.37 2.58625 28.318 2.63828C28.2659 2.69031 28.1954 2.71953 28.1218 2.71953Z" fill="url(#paint13_linear_8464_41993)"/>
<path d="M28.2996 2.44258C28.2993 2.47688 28.2889 2.51034 28.2697 2.53873C28.2504 2.56713 28.2232 2.5892 28.1915 2.60214C28.1597 2.61509 28.1248 2.61835 28.0912 2.6115C28.0576 2.60465 28.0267 2.58801 28.0026 2.56366C27.9784 2.53932 27.962 2.50836 27.9554 2.4747C27.9488 2.44104 27.9523 2.40618 27.9655 2.37451C27.9787 2.34285 28.0009 2.31579 28.0295 2.29676C28.058 2.27774 28.0916 2.26758 28.1258 2.26758C28.1488 2.26757 28.1715 2.27211 28.1927 2.28092C28.2138 2.28973 28.233 2.30264 28.2492 2.31891C28.2653 2.33518 28.2781 2.35448 28.2867 2.37571C28.2954 2.39693 28.2997 2.41966 28.2996 2.44258Z" fill="url(#paint14_linear_8464_41993)"/>
<path d="M27.1062 2.71953C27.051 2.71979 26.9969 2.70363 26.9508 2.67311C26.9048 2.64258 26.8689 2.59906 26.8476 2.54808C26.8264 2.4971 26.8207 2.44095 26.8315 2.38677C26.8422 2.33258 26.8688 2.2828 26.9078 2.24374C26.9469 2.20469 26.9966 2.17811 27.0508 2.1674C27.105 2.15669 27.1612 2.16232 27.2122 2.18357C27.2631 2.20483 27.3066 2.24075 27.3372 2.28679C27.3677 2.33282 27.3838 2.38688 27.3836 2.44212C27.3836 2.51569 27.3544 2.58625 27.3023 2.63828C27.2503 2.69031 27.1798 2.71953 27.1062 2.71953Z" fill="url(#paint15_linear_8464_41993)"/>
<path d="M27.2751 2.44258C27.2749 2.47688 27.2645 2.51034 27.2452 2.53873C27.226 2.56713 27.1988 2.5892 27.167 2.60214C27.1352 2.61509 27.1004 2.61835 27.0668 2.6115C27.0332 2.60465 27.0023 2.58801 26.9782 2.56366C26.954 2.53932 26.9376 2.50836 26.931 2.4747C26.9244 2.44104 26.9279 2.40618 26.9411 2.37451C26.9543 2.34285 26.9765 2.31579 27.0051 2.29676C27.0336 2.27774 27.0671 2.26758 27.1014 2.26758C27.1243 2.26757 27.1471 2.27211 27.1682 2.28092C27.1894 2.28973 27.2086 2.30264 27.2247 2.31891C27.2409 2.33518 27.2537 2.35448 27.2623 2.37571C27.2709 2.39693 27.2753 2.41966 27.2751 2.44258Z" fill="url(#paint16_linear_8464_41993)"/>
<path d="M11.9077 8.73047H11.9414V10.4028H11.9077C11.8929 10.4028 11.8782 10.3998 11.8645 10.3942C11.8509 10.3885 11.8384 10.3802 11.828 10.3697C11.8175 10.3592 11.8092 10.3468 11.8035 10.3331C11.7978 10.3195 11.7949 10.3048 11.7949 10.29V8.84325C11.7949 8.81335 11.8068 8.78465 11.828 8.76351C11.8491 8.74237 11.8778 8.73047 11.9077 8.73047Z" fill="url(#paint17_linear_8464_41993)"/>
<path d="M30.5866 3.13086H30.4297V3.35124H30.5866V3.13086Z" fill="#F4F4F4"/>
<path d="M30.8385 3.0332H30.6816V3.35211H30.8385V3.0332Z" fill="#F4F4F4"/>
<path opacity="0.55" d="M31.0943 2.95508H30.9375V3.34787H31.0943V2.95508Z" fill="#F4F4F4"/>
<path d="M31.0943 3.19531H30.9375V3.35217H31.0943V3.19531Z" fill="#F4F4F4"/>
<path opacity="0.55" d="M31.3551 2.81641H31.1982V3.3518H31.3551V2.81641Z" fill="#F4F4F4"/>
<path opacity="0.55" d="M33.5712 2.93282V2.75781H32.5756C32.5615 2.75781 32.548 2.76342 32.5381 2.77338C32.5281 2.78335 32.5225 2.79687 32.5225 2.81096V3.30617C32.5225 3.32026 32.5281 3.33378 32.5381 3.34375C32.548 3.35372 32.5615 3.35932 32.5756 3.35932H33.5738V3.17783H33.7034V2.93282H33.5712Z" fill="#F4F4F4"/>
<path opacity="0.55" d="M32.624 3.25082V2.84766H33.4757V3.03044V3.06933V3.25082H32.624Z" fill="#F4F4F4"/>
<path d="M32.624 3.25082V2.84766H32.8211V3.03044V3.06933V3.25082H32.624Z" fill="#F4F4F4"/>
<path d="M32.019 3.26322C32.0192 3.24337 32.0136 3.22389 32.0027 3.20728C31.9918 3.19066 31.9763 3.17767 31.958 3.16995C31.9397 3.16224 31.9195 3.16015 31.9 3.16397C31.8805 3.16778 31.8626 3.17731 31.8486 3.19135C31.8345 3.20538 31.825 3.22329 31.8212 3.24277C31.8174 3.26225 31.8195 3.28243 31.8272 3.30072C31.8349 3.31901 31.8479 3.33459 31.8645 3.34546C31.8811 3.35633 31.9006 3.36199 31.9204 3.36174C31.9466 3.36174 31.9716 3.35136 31.9901 3.33288C32.0086 3.3144 32.019 3.28935 32.019 3.26322Z" fill="#F4F4F4"/>
<path d="M31.75 3.09555L31.8122 3.15907C31.8261 3.14515 31.8425 3.13411 31.8607 3.12658C31.8788 3.11905 31.8982 3.11517 31.9179 3.11517C31.9375 3.11517 31.957 3.11905 31.9751 3.12658C31.9932 3.13411 32.0097 3.14515 32.0235 3.15907L32.0857 3.09555C32.0638 3.07332 32.0377 3.05568 32.0088 3.04364C31.98 3.03159 31.9491 3.02539 31.9179 3.02539C31.8866 3.02539 31.8557 3.03159 31.8269 3.04364C31.7981 3.05568 31.772 3.07332 31.75 3.09555Z" fill="#F4F4F4"/>
<path d="M31.9295 2.88477C31.8292 2.88551 31.733 2.92499 31.6611 2.99495L31.7246 3.05848C31.7789 3.00441 31.8523 2.97404 31.9288 2.97404C32.0054 2.97404 32.0788 3.00441 32.133 3.05848L32.1965 2.99495C32.1254 2.92461 32.0295 2.88503 31.9295 2.88477Z" fill="#F4F4F4"/>
<path d="M31.5557 2.88972L31.6192 2.95325C31.6594 2.91291 31.7072 2.88092 31.7598 2.85908C31.8124 2.83725 31.8688 2.82601 31.9258 2.82601C31.9827 2.82601 32.0392 2.83725 32.0917 2.85908C32.1444 2.88092 32.1922 2.91291 32.2324 2.95325L32.2959 2.88972C32.2476 2.84053 32.19 2.80146 32.1265 2.77479C32.0629 2.74811 31.9947 2.73438 31.9258 2.73438C31.8569 2.73438 31.7886 2.74811 31.7251 2.77479C31.6615 2.80146 31.604 2.84053 31.5557 2.88972Z" fill="#F4F4F4"/>
<path d="M28.3986 45.8008H20.4404C20.3984 45.8008 20.3582 45.8175 20.3285 45.8472C20.2989 45.8768 20.2822 45.9168 20.2822 45.9589C20.2822 46.001 20.2989 46.041 20.3285 46.0706C20.3582 46.1003 20.3984 46.117 20.4404 46.117H28.3986C28.4406 46.117 28.4808 46.1003 28.5104 46.0706C28.5401 46.041 28.5568 46.001 28.5568 45.9589C28.5568 45.9168 28.5401 45.8768 28.5104 45.8472C28.4808 45.8175 28.4406 45.8008 28.3986 45.8008Z" fill="white" stroke="white" stroke-width="0.128896"/>
<path d="M14.9925 3.77539L14.7002 6.23872L16.9796 5.26019L14.9925 3.77539ZM33.2527 46.3111L33.545 43.8479L31.2656 44.8262L33.2527 46.3111ZM15.5578 5.63678L32.2926 44.6191L32.6874 44.4498L15.9526 5.46728L15.5578 5.63678Z" fill="white"/>
</g>
</g>
</g>
<defs>
<linearGradient id="paint0_linear_8464_41993" x1="37.053" y1="16.3592" x2="36.8896" y2="16.3592" gradientUnits="userSpaceOnUse">
<stop stop-color="#C4B5E3"/>
<stop offset="1" stop-color="#928BBF"/>
</linearGradient>
<linearGradient id="paint1_linear_8464_41993" x1="11.9414" y1="25.474" x2="36.8922" y2="25.474" gradientUnits="userSpaceOnUse">
<stop stop-color="#F9EE4A"/>
<stop offset="1" stop-color="#FFD300"/>
</linearGradient>
<linearGradient id="paint2_linear_8464_41993" x1="11.9452" y1="18.7511" x2="11.7754" y2="18.7511" gradientUnits="userSpaceOnUse">
<stop stop-color="#928BBF"/>
<stop offset="1" stop-color="#C4B5E3"/>
</linearGradient>
<linearGradient id="paint3_linear_8464_41993" x1="11.9452" y1="14.0539" x2="11.7754" y2="14.0539" gradientUnits="userSpaceOnUse">
<stop stop-color="#928BBF"/>
<stop offset="1" stop-color="#C4B5E3"/>
</linearGradient>
<linearGradient id="paint4_linear_8464_41993" x1="16.9071" y1="-3.62056" x2="33.4783" y2="60.0611" gradientUnits="userSpaceOnUse">
<stop offset="0.04" stop-color="#0190FF"/>
<stop offset="0.406667" stop-color="#48AFFF"/>
</linearGradient>
<radialGradient id="paint5_radial_8464_41993" cx="0" cy="0" r="1" gradientUnits="userSpaceOnUse" gradientTransform="translate(24.3646 49.9625) scale(6.65443 0.281669)">
<stop stop-color="white"/>
<stop offset="0.12" stop-color="#D5D4D5"/>
<stop offset="0.29" stop-color="#A09EA1"/>
<stop offset="0.45" stop-color="#747275"/>
<stop offset="0.61" stop-color="#524F53"/>
<stop offset="0.76" stop-color="#3A363B"/>
<stop offset="0.89" stop-color="#2B272C"/>
<stop offset="1" stop-color="#262227"/>
</radialGradient>
<radialGradient id="paint6_radial_8464_41993" cx="0" cy="0" r="1" gradientUnits="userSpaceOnUse" gradientTransform="translate(24.3479 0.723821) scale(6.65443 0.316878)">
<stop stop-color="white"/>
<stop offset="0.12" stop-color="#D5D4D5"/>
<stop offset="0.29" stop-color="#A09EA1"/>
<stop offset="0.45" stop-color="#747275"/>
<stop offset="0.61" stop-color="#524F53"/>
<stop offset="0.76" stop-color="#3A363B"/>
<stop offset="0.89" stop-color="#2B272C"/>
<stop offset="1" stop-color="#262227"/>
</radialGradient>
<linearGradient id="paint7_linear_8464_41993" x1="24.411" y1="3.07994" x2="24.411" y2="2.01953" gradientUnits="userSpaceOnUse">
<stop stop-color="#474747"/>
<stop offset="0.96" stop-color="#231D30"/>
</linearGradient>
<linearGradient id="paint8_linear_8464_41993" x1="22.4512" y1="2.44129" x2="26.3674" y2="2.44129" gradientUnits="userSpaceOnUse">
<stop stop-color="#1F1A2B"/>
<stop offset="0.94" stop-color="#1F1A2B"/>
</linearGradient>
<linearGradient id="paint9_linear_8464_41993" x1="20.7126" y1="3.07733" x2="20.7126" y2="2.01692" gradientUnits="userSpaceOnUse">
<stop stop-color="#474747"/>
<stop offset="0.96" stop-color="#231D30"/>
</linearGradient>
<radialGradient id="paint10_radial_8464_41993" cx="0" cy="0" r="1" gradientUnits="userSpaceOnUse" gradientTransform="translate(20.7118 2.44258) scale(0.17371)">
<stop stop-color="#CDD0D1"/>
<stop offset="1" stop-color="#908F91"/>
</radialGradient>
<linearGradient id="paint11_linear_8464_41993" x1="21.7361" y1="3.07733" x2="21.7361" y2="2.01692" gradientUnits="userSpaceOnUse">
<stop stop-color="#474747"/>
<stop offset="0.96" stop-color="#231D30"/>
</linearGradient>
<linearGradient id="paint12_linear_8464_41993" x1="21.5576" y1="2.44258" x2="21.905" y2="2.44258" gradientUnits="userSpaceOnUse">
<stop stop-color="#1F1A2B"/>
<stop offset="0.94" stop-color="#1F1A2B"/>
</linearGradient>
<linearGradient id="paint13_linear_8464_41993" x1="28.1218" y1="3.07733" x2="28.1218" y2="2.01692" gradientUnits="userSpaceOnUse">
<stop stop-color="#474747"/>
<stop offset="0.96" stop-color="#231D30"/>
</linearGradient>
<linearGradient id="paint14_linear_8464_41993" x1="27.9496" y1="2.44258" x2="28.297" y2="2.44258" gradientUnits="userSpaceOnUse">
<stop stop-color="#1F1A2B"/>
<stop offset="0.94" stop-color="#1F1A2B"/>
</linearGradient>
<linearGradient id="paint15_linear_8464_41993" x1="27.1062" y1="3.07733" x2="27.1062" y2="2.01692" gradientUnits="userSpaceOnUse">
<stop stop-color="#474747"/>
<stop offset="0.96" stop-color="#231D30"/>
</linearGradient>
<linearGradient id="paint16_linear_8464_41993" x1="26.9277" y1="2.44258" x2="27.2751" y2="2.44258" gradientUnits="userSpaceOnUse">
<stop stop-color="#1F1A2B"/>
<stop offset="0.94" stop-color="#1F1A2B"/>
</linearGradient>
<linearGradient id="paint17_linear_8464_41993" x1="11.9401" y1="9.56662" x2="11.7949" y2="9.56662" gradientUnits="userSpaceOnUse">
<stop stop-color="#928BBF"/>
<stop offset="1" stop-color="#C4B5E3"/>
</linearGradient>
<clipPath id="clip0_8464_41993">
<rect width="48.88" height="49.92" fill="white" transform="translate(0 0.259766)"/>
</clipPath>
<clipPath id="clip1_8464_41993">
<rect width="48.3808" height="49.4102" fill="white" transform="translate(0.248047 0.769531)"/>
</clipPath>
<clipPath id="clip2_8464_41993">
<rect width="25.3496" height="49.4102" fill="white" transform="translate(11.7715 0.769531)"/>
</clipPath>
</defs>
</svg>
