<svg width="41" height="43" viewBox="0 0 41 43" fill="none" xmlns="http://www.w3.org/2000/svg">
<g clip-path="url(#clip0_8464_42673)">
<g clip-path="url(#clip1_8464_42673)">
<g clip-path="url(#clip2_8464_42673)">
<path d="M2.74837 0.916016H20.3409V42.2757H2.74837C2.01946 42.2757 1.3204 41.9861 0.804977 41.4708C0.28956 40.9554 0 40.2562 0 39.5272V3.66439C0 2.93547 0.28956 2.23641 0.804977 1.72099C1.3204 1.20558 2.01946 0.916016 2.74837 0.916016Z" fill="#1799FE"/>
<path d="M37.9354 42.2756H20.3428V0.916016H37.9354C38.6644 0.916016 39.3632 1.20558 39.8786 1.721C40.3943 2.23642 40.6838 2.93548 40.6838 3.66439V39.5272C40.6838 40.2562 40.3943 40.9554 39.8786 41.4708C39.3632 41.9861 38.6644 42.2756 37.9354 42.2756Z" fill="#48AFFF"/>
<path d="M28.751 10.3223H11.9294C10.3487 10.3223 9.06738 11.6036 9.06738 13.1842V30.0059C9.06738 31.5865 10.3487 32.8678 11.9294 32.8678H28.751C30.3316 32.8678 31.613 31.5865 31.613 30.0059V13.1842C31.613 11.6036 30.3316 10.3223 28.751 10.3223Z" fill="#FFF348"/>
<path d="M15.4542 7.77539H13.8789V10.3208H15.4542V7.77539Z" fill="white"/>
<path d="M21.128 7.77539H19.5527V10.3208H21.128V7.77539Z" fill="white"/>
<path d="M26.8019 7.77539H25.2266V10.3208H26.8019V7.77539Z" fill="white"/>
<path d="M15.4542 32.8672H13.8789V35.4126H15.4542V32.8672Z" fill="white"/>
<path d="M21.128 32.8672H19.5527V35.4126H21.128V32.8672Z" fill="white"/>
<path d="M26.8019 32.8672H25.2266V35.4126H26.8019V32.8672Z" fill="white"/>
<path d="M34.1606 16.7081V15.1328H31.6152V16.7081H34.1606Z" fill="white"/>
<path d="M34.1607 22.3819V20.8066H31.6152V22.3819H34.1607Z" fill="white"/>
<path d="M34.1606 28.0558V26.4805H31.6152V28.0558H34.1606Z" fill="white"/>
<path d="M9.06784 16.7061V15.1309H6.52246V16.7061H9.06784Z" fill="white"/>
<path d="M9.06788 22.3819V20.8066H6.52246V22.3819H9.06788Z" fill="white"/>
<path d="M9.06784 28.0558V26.4805H6.52246V28.0558H9.06784Z" fill="white"/>
<path d="M4.48603 4.45443C4.48603 4.67024 4.42202 4.88121 4.30214 5.06063C4.18224 5.2401 4.0118 5.37993 3.81245 5.46254C3.61306 5.54512 3.39366 5.56673 3.18199 5.52462C2.97033 5.48254 2.7759 5.3786 2.6233 5.226C2.4707 5.0734 2.36678 4.87898 2.32468 4.66732C2.28257 4.45565 2.30419 4.23625 2.38677 4.03687C2.46936 3.83749 2.60921 3.66707 2.78865 3.54717C2.96809 3.42727 3.17906 3.36328 3.39487 3.36328C3.53816 3.36328 3.68006 3.3915 3.81245 3.44634C3.94483 3.50117 4.0651 3.58155 4.16641 3.68287C4.26776 3.7842 4.34814 3.90448 4.40295 4.03687C4.4578 4.16926 4.48603 4.31114 4.48603 4.45443Z" fill="white"/>
<path d="M38.6674 4.45443C38.6674 4.67024 38.6034 4.88121 38.4837 5.06063C38.3639 5.2401 38.1934 5.37993 37.9942 5.46254C37.7946 5.54512 37.5752 5.56673 37.3637 5.52462C37.1519 5.48254 36.9573 5.3786 36.8048 5.226C36.6523 5.0734 36.5484 4.87898 36.5063 4.66732C36.4642 4.45565 36.4858 4.23625 36.5682 4.03687C36.6509 3.83749 36.7908 3.66707 36.9703 3.54717C37.1497 3.42727 37.3605 3.36328 37.5763 3.36328C37.8658 3.36328 38.1434 3.47824 38.3481 3.68287C38.5527 3.8875 38.6674 4.16504 38.6674 4.45443Z" fill="white"/>
<path d="M4.48603 38.7591C4.48603 38.9749 4.42202 39.186 4.30214 39.3655C4.18224 39.5446 4.0118 39.6845 3.81245 39.7672C3.61306 39.85 3.39366 39.8715 3.18199 39.8295C2.97033 39.7874 2.7759 39.6834 2.6233 39.5306C2.4707 39.3781 2.36678 39.1835 2.32468 38.9721C2.28257 38.7602 2.30419 38.5408 2.38677 38.3416C2.46936 38.1423 2.60921 37.9719 2.78865 37.8518C2.96809 37.732 3.17906 37.668 3.39487 37.668C3.53816 37.668 3.68006 37.6964 3.81245 37.751C3.94483 37.8057 4.0651 37.8863 4.16641 37.9877C4.26776 38.0888 4.34814 38.2092 4.40295 38.3416C4.4578 38.4739 4.48603 38.616 4.48603 38.7591Z" fill="white"/>
<path d="M38.6674 38.7591C38.6674 38.9749 38.6034 39.186 38.4837 39.3655C38.3639 39.5446 38.1934 39.6845 37.9942 39.7672C37.7946 39.85 37.5752 39.8715 37.3637 39.8295C37.1519 39.7874 36.9573 39.6834 36.8048 39.5306C36.6523 39.3781 36.5484 39.1835 36.5063 38.9721C36.4642 38.7602 36.4858 38.5408 36.5682 38.3416C36.6509 38.1423 36.7908 37.9719 36.9703 37.8518C37.1497 37.732 37.3605 37.668 37.5763 37.668C37.8658 37.668 38.1434 37.7831 38.3481 37.9877C38.5527 38.1923 38.6674 38.4696 38.6674 38.7591Z" fill="white"/>
</g>
</g>
</g>
<defs>
<clipPath id="clip0_8464_42673">
<rect width="41" height="41.8723" fill="white" transform="translate(0 0.660156)"/>
</clipPath>
<clipPath id="clip1_8464_42673">
<rect width="41" height="41.8723" fill="white" transform="translate(0 0.660156)"/>
</clipPath>
<clipPath id="clip2_8464_42673">
<rect width="41" height="41.3596" fill="white" transform="translate(0 0.916016)"/>
</clipPath>
</defs>
</svg>
